<svg width="398" height="398" viewBox="0 0 398 398" fill="none" xmlns="http://www.w3.org/2000/svg">
<path d="M328.355 285.33C325.861 293.825 321.475 301.326 314.912 307.31C297.458 323.228 271.44 331.185 248.063 329.996C238.094 329.488 228.462 327.974 218.868 325.14C216.519 324.448 213.869 323.781 211.825 322.388C206.954 319.073 188.274 284.858 183.18 276.901C178.95 270.179 174.168 263.824 168.883 257.899C145.97 232.62 113.127 219.793 80.475 235.544C77.5893 236.936 74.4214 239.925 71.22 240.21C69.3682 240.374 68.113 237.308 68.7564 235.732C72.503 228.724 81.9191 221.86 88.6751 218.064C121.136 199.823 157.769 219.099 181.439 242.772C185.258 246.942 190.475 251.73 193.684 256.321C205.932 273.842 222.215 286.791 242.923 292.991C254.039 296.319 267.044 297.219 277.755 291.071C289.228 284.485 292.318 274.595 295.63 262.703C298.607 269.273 299.529 273.656 297.653 280.871C294.941 291.289 287.02 300.015 277.808 305.266C261.987 314.291 242.943 313.632 226.261 307.5C223.63 306.524 221.048 305.41 218.529 304.167C217.058 303.447 214.729 302.059 213.306 301.671L213.195 301.897C213.448 302.313 213.719 302.719 214.006 303.112C215.134 304.639 216.888 306.247 218.323 307.539C249.511 335.609 312.6 316.866 313.965 271.729C314.433 256.217 303.973 242.57 288.453 239.976C276.104 237.913 263.697 247.874 262.258 260.113C261.83 263.784 262.866 267.477 265.135 270.392C269.1 275.391 275.843 276.274 281.758 276.903C276.097 282.002 265.707 286.753 258.101 285.759C246.506 284.214 244.278 269.966 245.602 260.707C248.433 240.937 261.23 224.441 282.48 223.952C286.367 223.862 288.762 223.75 292.735 224.293C316.143 227.494 330.606 250.068 330.138 272.642C330.067 276.051 329.545 279.293 329.044 282.672L328.355 285.33Z" fill="white"/>
<path d="M328.357 285.33C327.074 284.85 326.17 284.462 326.256 282.95L326.795 282.514C327.788 282.341 328.051 282.445 329.046 282.671L328.357 285.33Z" fill="white"/>
<path d="M312.013 240.732C314.469 243.056 319.067 247.858 312.443 248.833C310.701 246.394 309.969 247.454 308.566 244.186C309.716 242.629 310.564 241.974 312.013 240.732Z" fill="white"/>
<path d="M311.149 243.293C311.615 243.123 312.134 243.334 312.35 243.782C312.565 244.229 312.405 244.767 311.983 245.026C311.669 245.218 311.274 245.215 310.962 245.018C310.653 244.82 310.481 244.463 310.521 244.097C310.559 243.731 310.805 243.419 311.149 243.293Z" fill="white"/>
<path d="M209.527 280.518C211.088 280.766 213.822 283.744 214.277 285.279L213.997 285.5C212.942 285.203 211.791 284.021 210.594 283.267C211.031 284.421 211.831 286.243 211.874 287.389C210.916 287.866 207.952 286.466 206.663 286.045C207.004 286.743 207.039 286.603 207.769 287.118L208.233 287.58C209.024 288.374 209.848 288.98 209.849 290.078L209.481 290.142C208.118 289.469 204.779 286.801 205.173 285.16C206.8 284.122 207.942 285.672 209.781 285.601C209.401 283.942 208.733 282.004 209.527 280.518Z" fill="white"/>
<path d="M146.163 224.99C147.504 225.107 148.852 226.045 150.543 226.373C151.097 226.177 151.275 226.018 151.745 225.688C152.232 226.374 152.448 227.272 152.197 228.074C151.312 228.259 149.693 227.323 148.348 227.011L148.075 227.363C149.168 228.386 149.872 229.318 150.806 230.491L150.741 230.779C148.811 230.372 147.132 228.44 146.119 226.841C145.637 226.081 145.917 225.751 146.163 224.99Z" fill="white"/>
<path d="M249.861 304.496C250.547 305.184 250.924 305.338 250.899 306.277L250.253 306.878C249.116 306.665 249.296 306.886 248.727 306.188C248.81 305.427 249.304 305.077 249.861 304.496Z" fill="white"/>
<path d="M225.58 75.6224C227.692 73.5177 229.647 71.3976 231.627 69.1859C237.588 62.5294 242.928 55.0468 251.413 51.4452C259.362 48.0715 271.177 49.872 274.633 58.797C275.793 61.791 274.856 64.3467 275.104 67.4104C275.588 70.3679 276.33 73.2678 276.773 76.2367C278.272 86.3083 277.082 93.4388 273.048 102.735C272.777 103.357 272.177 104.853 271.86 105.363C266.971 118.102 254.343 128.264 244.009 136.463C237.618 141.532 232.756 144.276 229.145 151.932C223.691 163.495 224.258 173.909 228.15 185.767C232.594 199.313 246.086 216.007 258.969 222.168C248.884 227.913 241.497 239.66 238.054 250.533C236.95 248.664 235.428 246.475 234.579 244.48C231.564 237.383 228.231 226.09 226.872 218.507C223.243 230.043 224.917 242.561 230.558 253.197C231.961 255.84 234.957 259.397 235.785 261.91C237.005 265.609 236.674 270.568 237.491 274.596C237.866 276.448 239.829 281.138 239.831 282.31C237.813 282.919 228.398 277.052 226.269 275.755C192.583 255.234 180.154 213.218 205.555 180.86C206.876 179.178 208.579 177.058 209.714 175.27L209.887 174.994C205.145 177.463 195.603 187.232 193.05 192.296C191.467 195.435 190.892 198.086 188.415 200.902L188.373 200.518C186.551 183.239 197.529 170.294 207.719 157.668C197.646 162.971 195.071 166.288 188.353 175.44C187.053 177.211 184.488 180.66 183.012 182.17L182.789 182.395C183.279 178.141 183.25 176.197 184.591 171.927C189.484 156.339 205.008 144.174 218.851 136.767C227.406 132.191 234.787 129.392 242.746 123.123C249.327 117.937 252.142 114.54 256.997 107.82C250.912 110.401 244.865 110.856 238.393 109.819C240.011 109.221 241.591 108.523 243.123 107.729C251.416 103.371 263.297 94.2802 266.32 84.974C267.88 81.2905 265.771 75.9417 262.269 74.0055C256.999 71.0934 255.437 70.0435 252.434 64.4669C243.774 68.3772 233.944 71.6279 225.58 75.6224Z" fill="white"/>
<path d="M271.856 105.363C270.605 104.779 269.385 104.038 269.172 102.594C270.033 101.082 271.813 102.159 273.044 102.735C272.773 103.357 272.172 104.852 271.856 105.363Z" fill="white"/>
<path d="M212.564 194.916C212.95 195.509 210.43 203.994 210.224 205.591C209.854 208.457 209.552 211.255 209.413 214.138C208.75 227.696 211.17 241.228 216.489 253.713L213.129 249.873C207.951 243.955 204.94 235.751 203.854 228.041C202.293 216.282 205.422 204.379 212.564 194.916Z" fill="white"/>
<path d="M211.841 159.246C213.067 159.426 216.606 163.051 216.769 164.372C215.374 165.19 215.02 162.645 213.541 162.464C213.054 163.637 214.391 165.292 213.975 166.486C213.444 166.581 210.846 165.59 209.849 165.332L209.6 165.571L210.054 166.057C210.907 166.82 211.945 167.508 212.167 168.517L211.724 168.594C210.106 167.843 208.045 166.334 207.387 164.634C207.803 162.886 210.903 164.113 212.178 164.459C211.617 162.448 210.979 161.203 211.841 159.246Z" fill="white"/>
<path d="M218.022 156.547C218.668 156.718 220.025 157.685 220.498 158.169C222.06 159.767 219.755 161.668 218.647 162.615C217.714 162.841 216.984 162.48 216.069 162.133C214.084 159.995 216.507 157.915 218.022 156.547Z" fill="white"/>
<path d="M217.435 158.537C217.895 158.316 218.439 158.37 218.847 158.677C219.254 158.984 219.457 159.492 219.373 159.996C219.289 160.5 218.932 160.915 218.447 161.072C217.763 161.294 217.025 160.947 216.758 160.278C216.491 159.61 216.787 158.849 217.435 158.537Z" fill="white"/>
<path d="M104.923 300.571C106.403 300.386 110.703 300.37 112.286 300.411C146.258 301.284 174.602 325.572 204.847 337.875C236.271 350.657 271.775 350.391 300.484 331.325C302.918 329.707 305.427 332.622 303.662 334.849C291.533 350.147 273.398 358.906 254.895 363.835C246.575 366.004 241.201 366.24 232.886 366.544C204.23 367.592 181.181 355.477 157.082 341.723C143.954 334.23 128.729 325.866 113.744 323.292C92.8323 319.702 76.1677 327.018 59.398 338.616C58.4505 337.314 58.1975 336.756 57.5156 335.277C58.5546 330.491 63.6629 323.287 66.9006 319.548C76.4974 308.338 90.2111 301.494 104.923 300.571Z" fill="white"/>
<path d="M117.878 312.539C119.53 312.917 122.54 315.568 122.835 317.252L122.459 317.366C121.259 316.976 120.06 315.707 119.092 314.822C119.793 316.656 120.358 318.201 120.945 320.088C119.999 319.7 117.656 318.607 116.719 318.911L116.87 319.297C117.568 320.073 118.752 321.194 118.701 322.206C117.178 322.138 113.423 318.982 113.836 317.163C115.896 316.002 116.767 317.871 118.264 317.311C118.636 315.887 117.352 315.022 117.878 312.539Z" fill="white"/>
<path d="M124.611 309.518C125.073 309.606 126.989 311.62 128.333 312.417C127.139 313.723 126.283 314.609 124.969 315.788L124.038 316.123C123.071 315.999 122.974 316.034 122.277 315.418C120.846 312.886 122.875 311.004 124.611 309.518Z" fill="white"/>
<path d="M124.096 311.182C125.045 311.555 125.537 311.92 125.859 312.896C125.649 313.967 125.819 313.564 124.912 314.479C123.802 314.385 123.383 314.418 123.004 313.325C123.171 312.369 123.542 311.981 124.096 311.182Z" fill="white"/>
<path d="M165.957 324.58C166.739 325.661 169.402 329.927 169.17 330.967L168.566 331.249C167.167 329.268 166.047 329.653 164.219 326.366L165.957 324.58Z" fill="white"/>
<path d="M202.433 350.578L202.984 350.713C203.478 351.633 201.624 352.382 201.121 354.216C202.183 355.735 203.962 353.954 204.954 353.28L205.286 353.569L205.269 354.512C203.531 356.308 200.207 357.394 200.068 353.655C200.018 352.318 201.437 351.362 202.433 350.578Z" fill="white"/>
<path d="M128.403 307.406C128.811 307.264 129.264 307.362 129.575 307.664C129.885 307.964 130 308.415 129.87 308.829C129.74 309.24 129.389 309.544 128.962 309.613C128.379 309.706 127.821 309.339 127.676 308.765C127.531 308.192 127.846 307.603 128.403 307.406Z" fill="white"/>
<path d="M158.204 336.574C158.788 336.759 158.831 336.896 159.243 337.353C159.463 338.203 159.389 338.271 159.07 339.139C157.998 338.839 158.28 339.088 157.758 338.307C157.762 337.434 157.819 337.383 158.204 336.574Z" fill="white"/>
<path d="M119.191 117.706C116.957 115.08 115.158 112.177 114.076 108.888C112.148 102.842 112.717 96.275 115.658 90.6535C119.56 83.1463 124.849 82.8548 130.784 78.8388C132.845 77.4439 137.502 71.3957 139.836 69.0815C149.887 59.2647 162.097 51.9451 175.484 47.7107C192.59 42.1372 210.918 41.504 228.366 45.8841C231.947 46.8023 236.304 48.0357 239.576 49.7243C236.829 50.724 232.749 53.6186 229.898 55.2309C223.633 58.7731 217.236 55.3407 209.657 55.117C186.311 54.428 168.398 59.9945 151.271 75.7562L152.211 76.399C161.682 70.5158 169.652 67.9875 180.448 65.9797C167.485 75.222 159.963 81.832 153.38 96.5304C147.779 90.7793 136 86.9206 129.236 92.6448C123.818 97.2298 122.833 105 127.512 110.463C132.424 116.196 139.449 116.772 146.369 117.37C142.056 113.153 134.588 110.528 132.293 105.295C129.402 97.6836 138.073 95.3839 143.418 98.3863C151.205 102.761 151.094 112.655 153.764 120.484L153.877 120.812C134.252 129.92 121.7 154.12 122.049 175.273C123.341 169.048 127.161 160.563 130.591 155.227C138.393 143.087 146.253 136.309 160.281 132.994L160.02 133.224C144.259 147.327 134.912 166.087 132.393 187.014C131.753 192.329 131.414 197.436 131.141 202.767C121.635 200.685 114.922 200.795 105.325 202.502C102.828 179.486 107.881 158.484 113.906 136.456C115.521 130.554 117.25 123.418 119.191 117.706Z" fill="white"/>
<path d="M151.268 75.7559L152.208 76.3986C151.439 76.9702 149.377 78.0505 148.457 78.5629C149.321 77.6337 150.355 76.6559 151.268 75.7559Z" fill="white"/>
<path d="M126.51 190.279C127.243 190.691 127.206 190.663 127.642 191.388C127.69 192.538 127.753 192.083 127.146 193.248C126.141 193.124 125.867 193.219 125.371 192.322C125.527 191.367 125.905 191.042 126.51 190.279Z" fill="white"/>
<path d="M105.398 246.288C113.712 245.702 122.051 246.988 129.805 250.05C154.487 259.593 172.182 284.26 182.543 307.671C181.701 307.024 180.805 306.491 179.884 305.963C167.418 298.8 153.99 293.562 140.556 288.549C138.122 287.641 135.682 286.769 133.316 285.708C132.604 285.389 131.728 284.234 131.222 283.618C129.193 280.797 126.774 278.281 124.039 276.14C105.453 261.871 77.7446 272.236 67.4461 291.761C66.2752 293.98 64.5422 296.684 61.8738 296.974C59.5675 297.222 58.1571 294.711 58.2503 292.702C57.6294 273.375 71.6639 256.506 89.0514 249.67C94.9415 247.353 99.1747 246.672 105.398 246.288Z" fill="white"/>
<path d="M113.206 261.549C113.558 261.587 113.613 261.645 113.952 261.78C113.764 262.622 112.505 263.771 111.826 264.512L111.346 264.778L111.022 264.623C110.954 263.357 112.309 262.277 113.206 261.549Z" fill="white"/>
<path d="M149.646 207.74C146.741 206.527 138.672 205.318 137.758 203.046C136.062 198.831 138.89 185.628 140.152 181.366C144.155 167.851 151.233 155.815 163.721 148.885C163.48 149.996 163.474 149.908 163.947 151.163C154.35 165.533 150.267 179.205 149.464 196.596C149.317 199.793 149.238 204.616 149.646 207.74Z" fill="white"/>
<path d="M204.831 68.0157C209.403 67.2258 213.761 70.2581 214.619 74.8256C215.478 79.3931 212.518 83.8051 207.972 84.7348C204.969 85.3489 201.869 84.2942 199.86 81.9754C197.851 79.6564 197.245 76.4331 198.275 73.5411C199.305 70.649 201.81 68.5375 204.831 68.0157Z" fill="white"/>
<path d="M213.313 130.553C214.118 130.451 214.162 130.429 214.926 130.649C214.953 131.487 213.582 132.322 212.88 132.777C200.156 141.025 190.688 151.556 180.646 162.812C180.317 163.188 180.224 163.248 179.847 163.578L179.652 163.285C180.964 148.674 199.677 133.46 213.313 130.553Z" fill="white"/>
<path d="M240.569 78.5955L243.94 78.543C228.111 88.337 216.633 95.5241 202.461 107.716L200.754 109.21C201.747 106.388 202.441 104.561 204.322 102.115C211.522 92.7533 228.942 80.2758 240.569 78.5955Z" fill="white"/>
<path d="M210.688 111.49C218.135 98.2908 233.383 89.149 247.348 84.203C247.973 83.9808 248.31 84.0739 248.837 84.3694C248.903 84.6462 249.103 85.0454 248.824 85.2205C236.168 93.233 224.584 103.837 212.239 112.147C211.746 112.001 211.165 111.708 210.688 111.49Z" fill="white"/>
<path d="M254.246 89.1543L254.628 89.4247C254.312 91.6762 236.516 106.188 234.191 107.929C231.153 110.203 228.01 112.329 224.766 114.298L224.43 114.018C229.334 102.569 243.912 94.9374 254.246 89.1543Z" fill="white"/>
<path d="M102.735 280.529C108.08 280.082 111.949 281.457 116.551 283.92C110.137 283.489 103.827 283.479 97.582 285.118C94.0061 285.655 89.6204 287.357 86.3555 288.897C91.4666 283.733 95.1897 281.323 102.735 280.529Z" fill="white"/>
<path d="M176.048 213.832C176.925 214.489 181.951 228.887 181.953 230.243L181.518 230.001C174.019 223.852 173.029 223.374 176.048 213.832Z" fill="white"/>
<path d="M163.72 148.885L167.161 147.09C165.888 148.569 165.087 149.559 163.946 151.163C163.473 149.907 163.479 149.996 163.72 148.885Z" fill="white"/>
<path d="M210.689 111.49C211.166 111.708 211.748 112.001 212.24 112.147C211.181 112.815 209.957 113.746 208.922 114.493C209.487 113.494 210.104 112.481 210.689 111.49Z" fill="white"/>
</svg>
